HIERARCHY
ROOT Hips
{
	OFFSET -3.958830 18.904000 13.208200
	CHANNELS 6 Xposition Yposition Zposition Zrotation Yrotation Xrotation 
	JOINT LHipJoint
	{
		OFFSET 0.000000 0.000000 0.000000
		CHANNELS 3 Zrotation Yrotation Xrotation
		JOINT LeftUpLeg
		{
			OFFSET 1.800000 -1.400000 0.085000
			CHANNELS 3 Zrotation Yrotation Xrotation
			JOINT LeftLeg
			{
				OFFSET 2.215000 -6.000000 0.000000
				CHANNELS 3 Zrotation Yrotation Xrotation
				JOINT LeftFoot
				{
					OFFSET 2.500000 -6.900000 0.000000
					CHANNELS 3 Zrotation Yrotation Xrotation
					JOINT LeftToeBase
					{
						OFFSET 0.200000 -0.500000 1.950000
						CHANNELS 3 Zrotation Yrotation Xrotation
						End Site
						{
							OFFSET 0.000000 0.000000 0.000000
						}
					}
				}
			}
		}
	}
	JOINT RHipJoint
	{
		OFFSET 0.000000 0.000000 0.000000
		CHANNELS 3 Zrotation Yrotation Xrotation
		JOINT RightUpLeg
		{
			OFFSET -1.800000 -1.400000 0.085000
			CHANNELS 3 Zrotation Yrotation Xrotation
			JOINT RightLeg
			{
				OFFSET -2.215000 -6.000000 0.000000
				CHANNELS 3 Zrotation Yrotation Xrotation
				JOINT RightFoot
				{
					OFFSET -2.500000 -6.900000 0.000000
					CHANNELS 3 Zrotation Yrotation Xrotation
					JOINT RightToeBase
					{
						OFFSET -0.200000 -0.500000 1.950000
						CHANNELS 3 Zrotation Yrotation Xrotation
						End Site
						{
							OFFSET 0.000000 0.000000 0.000000
						}
					}
				}
			}
		}
	}
	JOINT LowerBack
	{
		OFFSET 0.000000 0.000000 0.000000
		CHANNELS 3 Zrotation Yrotation Xrotation
		JOINT Spine
		{
			OFFSET -0.087000 1.940000 -0.288900
			CHANNELS 3 Zrotation Yrotation Xrotation
			JOINT Spine1
			{
				OFFSET 0.000000 1.950000 0.060000
				CHANNELS 3 Zrotation Yrotation Xrotation
				JOINT Neck
				{
					OFFSET 0.000000 0.000000 0.000000
					CHANNELS 3 Zrotation Yrotation Xrotation
					JOINT Neck1
					{
						OFFSET 0.000000 1.600000 0.340000
						CHANNELS 3 Zrotation Yrotation Xrotation
						JOINT Head
						{
							OFFSET 0.000000 1.667000 -0.240000
							CHANNELS 3 Zrotation Yrotation Xrotation
							End Site
							{
								OFFSET 0.000000 0.000000 0.000000
							}
						}
					}
				}
				JOINT LeftShoulder
				{
					OFFSET 0.000000 0.000000 0.000000
					CHANNELS 3 Zrotation Yrotation Xrotation
					JOINT LeftArm
					{
						OFFSET 2.700000 1.550000 -0.730000
						CHANNELS 3 Zrotation Yrotation Xrotation
						JOINT LeftForeArm
						{
							OFFSET 5.450000 0.000000 0.000000
							CHANNELS 3 Zrotation Yrotation Xrotation
							JOINT LeftHand
							{
								OFFSET 3.450000 0.000000 0.000000
								CHANNELS 3 Zrotation Yrotation Xrotation
								JOINT LeftHandIndex1
								{
									OFFSET 0.750000 0.000000 0.000000
									CHANNELS 3 Zrotation Yrotation Xrotation
									End Site
									{
										OFFSET 0.000000 0.000000 0.000000
									}
								}
							}
						}
					}
				}
				JOINT RightShoulder
				{
					OFFSET 0.000000 0.000000 0.000000
					CHANNELS 3 Zrotation Yrotation Xrotation
					JOINT RightArm
					{
						OFFSET -2.700000 1.550000 -0.730000
						CHANNELS 3 Zrotation Yrotation Xrotation
						JOINT RightForeArm
						{
							OFFSET -5.450000 0.000000 0.000000
							CHANNELS 3 Zrotation Yrotation Xrotation
							JOINT RightHand
							{
								OFFSET -3.450000 0.000000 0.000000
								CHANNELS 3 Zrotation Yrotation Xrotation
								JOINT RightHandIndex1
								{
									OFFSET -0.750000 0.000000 0.000000
									CHANNELS 3 Zrotation Yrotation Xrotation
									End Site
									{
										OFFSET 0.000000 0.000000 0.000000
									}
								}
							}
						}
					}
				}
			}
		}
	}
}
MOTION
Frames: 6
Frame Time: 0.016667
1.588540 15.446870 -0.051440 2.945568 -1.914820 2.959890 -15.350769 12.616184 3.952743 -0.360192 -8.629906 -25.441324 -10.823465 10.093089 35.725822 -0.707462 7.610492 2.090820 0.820900 0.078490 0.615950 18.292571 -9.010702 3.848805 -6.537113 5.506431 -44.565120 5.941733 -5.752685 25.441731 -0.067705 -3.229956 3.501657 0.402050 0.451660 0.176100 -3.332872 -3.545332 -8.320589 7.225564 -6.719782 22.263289 -1.929495 -4.514180 -0.115856 -0.156759 -6.460339 -7.179197 -12.085665 5.449222 22.945761 -2.414540 1.022410 -13.361560 -27.712127 -11.463660 0.162007 -20.112582 -11.562932 0.055512 -70.447011 -51.801407 33.402030 -3.872957 3.359967 0.836360 0.291690 -0.328800 0.405680 28.424915 13.526908 5.501094 25.306907 1.793321 -6.611505 22.591698 37.253037 5.331740 1.351712 -1.621212 -0.586080 0.554510 -0.023770 -0.579310 
1.598520 15.406940 -0.058680 3.194945 -1.830907 2.237111 -15.382701 12.558100 4.045873 -0.202469 -9.161423 -25.785387 -11.283933 10.764884 37.740189 -0.602381 8.056372 1.922262 0.804460 0.060660 0.601520 18.279494 -8.907337 3.884540 -7.091560 5.568308 -45.471471 5.322613 -6.249537 28.746820 -0.130027 -3.693173 3.333901 0.384620 0.440000 0.177940 -3.266562 -3.671675 -8.427496 6.827826 -6.672280 23.461551 -1.575395 -4.468841 -0.828384 -0.161241 -6.698102 -7.195737 -12.645791 5.388117 23.399940 -2.666980 0.815070 -13.188920 -28.648480 -11.728458 0.041437 -20.415238 -11.470604 -0.333125 -65.985332 -49.489013 29.230216 -3.850040 3.354455 0.836260 0.286620 -0.330120 0.391550 29.423300 13.987585 5.675541 24.463294 1.594747 -6.707918 21.906562 36.678511 5.066736 1.349570 -1.620267 -0.577440 0.537540 -0.009720 -0.580520 
1.613940 15.345690 -0.051200 3.380953 -0.957812 1.035063 -15.413827 12.473286 4.144096 -0.054364 -9.886050 -25.936810 -11.554402 11.579972 40.616360 -0.439284 8.640470 1.719103 0.772830 0.027880 0.599600 18.273511 -8.807039 3.914483 -8.385047 5.363514 -46.493524 4.601449 -7.278017 34.074730 -0.269937 -4.555388 3.031171 0.345300 0.411210 0.168170 -3.217526 -3.784716 -8.580552 6.694612 -6.722045 24.707518 -1.584407 -4.507648 -1.443289 0.103323 -6.536591 -7.331772 -12.733522 4.876895 25.004289 -3.266410 0.640590 -13.267970 -29.561675 -12.373622 -0.072351 -21.818086 -11.808936 -0.837079 -58.039303 -44.574203 22.067176 -3.799446 3.277226 0.856570 0.263990 -0.306720 0.373310 29.811525 14.486102 6.018559 25.708879 1.269689 -7.272179 18.646868 35.419611 3.937343 1.368319 -1.552183 -0.572640 0.530680 -0.005800 -0.585500 
1.631220 15.292580 -0.031270 3.333459 0.062081 -0.745020 -15.451267 12.431884 4.225245 0.744140 -10.484566 -25.605629 -12.456233 12.803738 43.408828 -0.211744 9.322538 1.486837 0.760130 0.005390 0.615390 18.247569 -8.708189 3.940564 -9.992954 5.133315 -46.861933 4.384611 -8.764537 40.149569 -0.488650 -5.669390 2.641094 0.291720 0.353030 0.169130 -3.129361 -3.959930 -8.784112 6.581475 -6.592491 26.344676 -1.543925 -4.351647 -2.256392 0.655855 -6.038041 -7.694054 -12.525201 4.241902 27.847242 -3.422690 0.400440 -13.365760 -31.487447 -13.622502 -0.015883 -24.172254 -12.326013 -1.303206 -47.865734 -37.610343 14.148372 -3.704475 3.196197 0.891430 0.211640 -0.256340 0.362930 30.655446 15.437570 6.674461 26.984836 0.375622 -8.035352 15.144739 33.981957 2.798243 1.402159 -1.502627 -0.543040 0.497320 -0.023860 -0.586360 
1.638360 15.258290 0.004510 3.154094 0.484139 -3.001941 -15.458081 12.453967 4.244818 2.067927 -10.533988 -24.534868 -13.772061 14.376389 45.619397 0.027096 9.979096 1.249952 0.781330 0.019500 0.661290 18.228304 -8.697462 3.931224 -11.228999 5.154395 -46.175476 3.903345 -10.100781 46.042022 -0.733414 -6.736094 2.282342 0.251610 0.251630 0.158790 -3.091661 -4.046816 -8.956697 6.793121 -6.457333 27.747110 -1.969906 -4.154970 -2.985273 1.269589 -5.604165 -8.107591 -12.742018 4.141622 31.885616 -3.303880 0.380150 -13.623420 -33.674955 -14.438855 0.253402 -26.561032 -11.868263 -1.715862 -37.718250 -30.032126 7.777938 -3.587097 3.108220 0.931790 0.133100 -0.191600 0.345210 31.581740 16.176230 7.053927 28.926752 0.146603 -8.653210 11.199623 32.139402 1.670983 1.456601 -1.448522 -0.494790 0.444510 -0.063860 -0.597100 
1.631330 15.231100 0.047990 2.790253 0.798357 -5.076814 -15.454645 12.467430 4.222239 3.712428 -10.212311 -23.469344 -15.068595 15.972864 47.163932 0.195610 10.552868 1.031194 0.809550 0.034390 0.724940 18.218583 -8.681275 3.951959 -12.339417 5.547148 -45.190347 3.748883 -11.687779 52.156951 -1.030104 -7.893576 1.894597 0.229150 0.148670 0.154670 -3.083701 -4.064816 -9.115742 7.169070 -6.307522 28.370720 -2.724387 -3.978397 -3.593474 2.001028 -4.786107 -8.360432 -12.198185 4.256174 36.323369 -3.566070 0.788310 -14.152250 -35.961177 -14.729140 0.547348 -28.864383 -10.993383 -1.637982 -28.048126 -21.636194 3.063215 -3.509645 2.977218 0.993570 0.059260 -0.122090 0.319610 32.332476 16.219876 6.968617 31.289492 0.300097 -9.154364 8.358196 30.730424 0.928311 1.502339 -1.391119 -0.466710 0.401670 -0.094520 -0.626520 
